<?xml version="1.0" encoding="UTF-8" standalone="no"?>
<!-- (c) ammap.com | SVG map of Singapore - Low -->

<svg
   version="1.1"
   id="svg1"
   sodipodi:docname="singaporeLow.svg"
   inkscape:version="1.3.2 (091e20e, 2023-11-25, custom)"
   width="691.22272"
   height="404.56812"
   xmlns:inkscape="http://www.inkscape.org/namespaces/inkscape"
   xmlns:sodipodi="http://sodipodi.sourceforge.net/DTD/sodipodi-0.dtd"
   xmlns="http://www.w3.org/2000/svg"
   xmlns:svg="http://www.w3.org/2000/svg"
   xmlns:amcharts="http://amcharts.com/ammap">
  <sodipodi:namedview
     id="namedview1"
     pagecolor="#ffffff"
     bordercolor="#000000"
     borderopacity="0.25"
     inkscape:showpageshadow="2"
     inkscape:pageopacity="0.0"
     inkscape:pagecheckerboard="0"
     inkscape:deskcolor="#d1d1d1"
     inkscape:zoom="1.9022877"
     inkscape:cx="207.64472"
     inkscape:cy="215.26712"
     inkscape:window-width="1920"
     inkscape:window-height="1094"
     inkscape:window-x="-11"
     inkscape:window-y="-11"
     inkscape:window-maximized="1"
     inkscape:current-layer="svg1" />
  <defs
     id="defs1">
    <rect
       x="27.335507"
       y="357.99001"
       width="231.82613"
       height="32.592336"
       id="rect1" />
    <style
       type="text/css"
       id="style1">
			.land
			{
				fill: #CCCCCC;
				fill-opacity: 1;
				stroke:white;
				stroke-opacity: 1;
				stroke-width:0.5;
			}
		</style>
    <amcharts:ammap
       projection="mercator"
       leftLongitude="103.619003"
       topLatitude="1.470915"
       rightLongitude="104.084977"
       bottomLatitude="1.179868" />
    <!-- All areas are listed in the line below. You can use this list in your script. -->
    <!--{id:"SG-01"},{id:"SG-02"},{id:"SG-03"},{id:"SG-04"},{id:"SG-05"}-->
    <clipPath
       clipPathUnits="userSpaceOnUse"
       id="clipPath2">
      <rect
         style="fill:#2a0729;fill-opacity:0.0510511;stroke-width:1.8571"
         id="rect2"
         width="750.86212"
         height="460.18179"
         x="-32.710827"
         y="-31.967396" />
    </clipPath>
    <clipPath
       clipPathUnits="userSpaceOnUse"
       id="clipPath1">
      <rect
         style="fill:#2a0729;fill-opacity:0.0510511;stroke-width:1.02675"
         id="rect3"
         width="694.36163"
         height="425.24069"
         x="-2.9737113"
         y="-20.815979" />
    </clipPath>
  </defs>
  <g
     id="g1"
     clip-path="url(#clipPath1)"
     transform="translate(-0.16522957,0.14341116)">
    <path
       id="SG-01"
       title="Central Singapore"
       class="land"
       d="m 430.84,77.29 6.38,3.86 8.89,10.73 4.99,1.87 2.1,-2.6 4.36,0.42 14.99,4.56 5.66,4.3 v 0 l -0.3,0.29 v 0 l -5.15,7.86 v 0 l -10.02,7.12 -1.68,7.58 v 0 l -0.56,2.62 v 0 l -7.4,6.09 -0.09,6.18 -6.67,10.65 -6.78,20.43 v 0 l -11.34,-1.64 v 0 l -6.87,1.29 -11.16,23.74 -0.14,5.87 5.29,13.45 -10.3,3.57 v 3.72 l 13.01,1.86 5.01,15.73 9.58,3.72 6.87,6.86 1.43,10.45 v 0 l -5.15,4.15 v 0 l -3.72,3 v 0 l -1,3.43 2.86,7.44 -1.76,7.47 v 0 l -10.47,10.12 0.83,17.15 -16.43,-0.12 -1.97,8.35 2.17,7.13 2.04,0.2 5.37,-10.93 3.46,0.07 11.41,5.5 5.92,8.69 -17,13.37 -8.41,-2.14 -1.64,-3.83 -6.05,-1.8 -2.53,2.03 0.63,20.97 -9.28,-9.6 -3.41,2.93 2.99,5.3 -9.56,-9.53 -13.39,-0.38 -13.13,7.39 h -8.09 l -4.05,-1.36 1.15,-1.43 -2.12,-1.4 -2.59,2.53 -2.15,-2.06 1.67,-2.1 -3.56,-1.63 v 0 l -5.13,-8.36 7.97,-10.82 -0.38,-3.42 -1.52,-2.28 -17.85,0.19 -8.35,-4.94 -3.99,-17.09 -5.51,-9.3 3.23,-6.46 v 0 l 0.57,-3.41 2.3,1.78 v 0 l 5.13,2.93 2.44,-16.13 9.04,-12.46 7.82,-4.89 0.73,-10.51 5.13,-6.11 -0.49,-3.18 -8.55,-2.44 -14.17,-12.95 -0.98,-4.15 11,-17.35 12.22,-9.77 8.17,-20.84 v 0 l -1.57,-2.62 v 0 l -3.42,-10.02 0.49,-12.22 -4.4,-9.77 v 0 l -3.66,-6.6 v 0 l 13.44,-6.11 8.8,-16.61 v 0 l 3.18,-10.51 v 0 l 6.84,-5.62 6.35,0.73 11.24,11.48 8.8,-1.71 v 0 l 5,-0.12 v 0 l 6.63,-1.66 v 0 l -7.04,9.29 -26.84,9.1 -3,4.51 1.69,5.82 4.65,-3.03 2.76,-5.88 13.61,-0.28 15.89,-7.71 16.4,-25.38 z m 46.68,14.47 h -12.86 l -8.33,-4.04 9.73,-10.55 12.45,8.08 z m -22.75,-6.02 -1.57,1.81 -6.76,-1.24 -14.83,-12.61 1.07,-3.38 8.33,-5.44 4.86,-0.25 6.92,3.63 8.9,6.51 z" />
    <path
       id="SG-02"
       title="North East"
       class="land"
       d="m 532.68,110.05 2.97,5.42 -8.2,-5.22 -3.22,1.37 0.62,-4.07 -15.15,-16.31 11.28,6.9 z m -26.77,-17.66 0.34,8.23 21.14,16.76 -6.45,5.89 1.7,3.88 13.68,-6.35 5.13,4.37 6.46,11.58 12.92,8.89 13.26,4.87 1.42,3.27 0.84,-2.35 9.39,1 6.89,-2.26 5.65,2.19 4.07,-6.93 v 0 l 1.41,5.85 8.73,10.06 -0.76,3.61 -19.94,18.61 3.42,8.73 v 8.54 l -11.77,3.8 -17.47,12.15 -8.16,-3.99 -15.38,1.33 -11.01,-2.09 -1.04,2.97 5.68,3.2 v 0 l 2.82,2.91 v 0 l 2.19,3.58 -1.48,3.09 -7.41,0.76 -12.53,7.79 1.33,2.85 -3.99,4.56 3.61,3.23 -1.9,6.27 -24.68,1.52 -2.85,-5.89 2.09,-6.08 -27.72,-26.96 -0.38,-7.41 -18.23,-5.51 -2.47,-3.23 -1.33,-6.08 -7.59,-8.92 4.05,-15.46 v 0 l 6.78,-20.43 6.67,-10.65 0.09,-6.18 7.4,-6.09 v 0 l 0.56,-2.62 v 0 l 1.68,-7.58 10.02,-7.12 v 0 l 5.15,-7.86 v 0 l 0.3,-0.29 v 0 l 1.51,-2.78 10.4,-3.9 5.79,-9.15 5.37,-1.76 3.19,1.01 -1.26,3.95 z" />
    <path
       id="SG-03"
       title="North West"
       class="land"
       d="m 411.58,35.23 11.68,14.27 0.66,5.35 -7.32,-8.07 z m -65.75,-29.71 -2.63,4.41 1.22,1.41 6.38,-4.51 1.78,4.79 -2.44,3.19 2.35,0.66 9.49,-11.7 8.49,5.28 -2.63,7.98 8.26,-6.2 24.54,17.62 18.02,33.25 -11.08,14.64 -0.56,5.54 -6.49,11.59 v 0 l -6.63,1.66 v 0 l -5,0.12 v 0 l -8.8,1.71 -11.24,-11.48 -6.35,-0.73 -6.84,5.62 v 0 l -3.18,10.51 v 0 l -8.8,16.61 -13.44,6.11 v 0 l 3.66,6.6 v 0 l 4.4,9.77 -0.49,12.22 3.42,10.02 v 0 l 1.57,2.62 v 0 l -8.17,20.84 -12.22,9.77 -11,17.35 0.98,4.15 14.17,12.95 8.55,2.44 0.49,3.18 -5.13,6.11 -0.73,10.51 -7.82,4.89 -9.04,12.46 -2.44,16.13 -5.13,-2.93 v 0 l -2.3,-1.78 v 0 l -0.95,-3.42 -9.87,-3.79 -10.63,-7.97 -10.07,-2.47 -20.69,-16.9 -4.56,-7.21 v -6.08 l 11.2,-0.2 8.92,-4.94 0.57,-4.36 8.35,-0.57 2.1,-2.28 -0.57,-4.36 -7.79,-5.13 -13.67,-16.7 -1.9,-20.13 -12.53,-30.76 -10.83,-16.33 -2.28,-14.05 4.94,-8.74 0.19,-21.46 12.16,-14.05 -2.3,-13.75 v 0 l 5.38,-2.15 3.85,-7.42 4.22,-0.66 0.28,-4.13 4.22,-3.75 16.61,-7.42 37.57,-26.17 22.57,-3.44 12.59,2.27 z" />
    <path
       id="SG-04"
       class="land"
       d="m 752.45039,65.590964 -6.91993,7.019531 -11.54101,-3.111328 -3.66016,-3.408203 -9.8789,10.908203 -16.15039,-0.5 5.10937,17.460937 -5.82031,11.839846 13.24023,10.83008 2.91016,8.48047 21.9707,25.48046 10.5293,-8.53125 18.46094,-8.83007 5.91992,-2.10938 6.91992,3.31055 8.33008,-4.71094 8.1289,-26.98047 L 799.3,97.020651 793.18085,86.659323 771.21015,72.110495 Z M 542.8,72.329245 l -12.64063,7.021484 1.30078,6.119141 5.2207,4.509766 3.10938,-1 4.00977,4.111328 5.7207,0.09961 16.04883,7.419927 5.01953,8.01953 5.7207,1.09961 6.12109,9.63086 23.06836,-4.91993 10.53125,-8.42968 24.67969,-1.60157 -2.31055,-1.80859 0.59961,-7.320313 -2.60937,-6.320313 -5.11914,1.810547 -0.70117,-2.111328 -10.33008,1.400391 -13.24024,-2.609375 -28.68945,1.5 -9.12891,-3.080078 -7.41992,-6.720703 z m 152.48632,14.041016 c 0.0225,0.07514 0.0512,0.147915 0.0703,0.224609 0.005,0.01873 -6e-4,0.02452 0.004,0.04297 0.065,0.126945 0.13047,0.242341 0.19727,0.390625 0.14441,0.320606 0.0935,0.77944 -0.0274,1.246094 -5.6e-4,0.0127 0.005,0.03227 0.004,0.04492 0.46658,0.451003 0.75561,1.11041 0.80664,2.029297 0.051,0.918602 -0.54081,1.749482 -0.95508,2.492188 -0.23039,0.270193 -0.50492,0.587977 -0.80664,0.910156 0.003,1.215493 0.004,2.430992 0.006,3.646484 l 4.4043,-0.988281 1.4707,-4.740234 z m -127.57617,26.708989 6.91992,6.55078 -1.27929,-4.51953 z m 65.56055,18.4414 -20.15039,2.01953 -10.78125,11.89063 1.41015,5.84961 8.73047,10.06054 -0.75976,3.60938 -19.93946,18.60937 3.41993,8.73047 v 8.53907 l -11.76954,3.80078 -17.4707,12.15039 -8.16015,-3.99024 -15.38086,1.33008 -11.00977,-2.08984 -1.03906,2.96875 5.67969,3.20117 2.82031,2.91016 2.18945,3.58007 -1.48047,3.08985 -7.41015,0.75976 -12.5293,7.78907 1.33008,2.85156 -3.99024,4.55859 3.60938,3.23047 -1.89844,6.26953 -24.67969,1.52149 -2.85156,-5.89063 2.08984,-6.08008 -27.71875,-26.96093 -0.38086,-7.41016 -18.23046,-5.50977 -2.46875,-3.22851 -1.33008,-6.08008 -7.58985,-8.91992 4.04883,-15.46094 -11.33984,-1.64062 -6.86914,1.29101 -11.16016,23.74024 -0.14062,5.85937 5.29101,13.44922 -10.30078,3.58008 v 3.7207 l 13.01953,1.85938 5.00977,15.73046 9.58008,3.72071 6.87109,6.86914 1.42969,10.4414 -5.15039,4.14844 -3.71875,3 -1,3.42969 2.85937,7.44141 -1.75976,7.46875 3.75976,1.29101 0.20899,4.10938 7.12109,6.20117 -17.16992,0.60937 -0.24024,6.05078 3.93946,8.87891 11.00976,12.91992 5.02149,-5.66992 4.14843,-0.42969 12.58008,-9.9707 28.80078,-13.08008 12.07032,-1.64844 5,-3.59179 21.91992,-6.12891 24.91992,-3.5293 33.83984,-12.80078 37.83008,-4.83984 0.87891,-0.0312 2.05078,7.71094 10.13086,-2.74024 17.2793,6.18946 30,-8.58008 2.06054,-7.72852 -13.2207,-6.4707 -5.65039,-1.45899 -15.58985,3.2793 -5.74023,-2.83008 26.61133,-64.37109 -7.93164,-2.91992 0.18164,-23.79883 -6.4707,-13.49024 -10.93946,-8 z" />
    <path
       id="SG-05"
       class="land"
       d="m 176.76093,34.350729 -15.45117,3.359375 -29.78906,25.390625 -10.00977,2.759766 -1.11133,2.75 -4.29882,-0.509766 v 2.519532 l -6.61133,-0.541016 -13.369142,9.730469 0.25,9.78125 -3.041016,-0.341797 0.960938,1.890625 -2.560547,1.660156 1.599609,6.410156 -4.638672,1.429686 2.048828,4.67969 -7.490234,4.16992 0.511719,-4.63867 -3.371094,0.50977 0.05078,4.70898 -4.009765,2.92969 -1.951172,27.80078 -7.580078,7.69922 -7.128907,18.27148 -6.759765,3.41992 -17.521485,33.29883 -5.90039,3.96094 1.011718,7.83984 -30.18164018,84.17969 1.94140628,17.79102 12.7285159,7.58984 39.041015,-0.75977 0.589844,-3.96093 -22.439453,-43.15039 -6.480469,-5.63868 7.38086,-6.5 8.808593,7.21875 8.78125,-8.68945 3.519532,-0.66992 2.378906,3.87891 -8.259766,9.90039 3.88086,4.89062 10.11914,-9.5293 4.810547,0.66993 -13.539062,16.04882 2.408203,2.33008 4.550781,-1.51953 3.371094,4.81055 -1.851563,4.29883 9.611328,11.58984 5.34961,-4.42969 4.740234,4.58985 11.699219,-10.21875 -7.029297,-8.79102 -0.25,-10.99023 6.660156,-0.71875 1.388672,7.80859 9.249998,8.79102 3.52149,-1.67969 -1.30078,-17.81055 2.51953,-2.83008 2.45117,2.67969 2.05859,15.29102 15.65039,-1.93164 -1.04883,-6.93946 4.88868,-6.18945 10.92968,6.26953 1.22071,4.05078 h 6.5 l 2.67968,-9.46094 4.36133,-2.21875 8.5586,0.60938 14.53125,10.92969 3.43945,-20.41016 6.26953,-8.78906 3.13086,-0.91992 1.67969,2.44921 -6.73047,8.61915 -2.36914,21.10156 5.95898,-1.91016 30.89063,8.41016 12.16015,-0.61133 -5.29101,-14.75 -14.58985,-6.04883 13.16016,0.33985 5.41992,4.48046 4.35938,11.69922 9.07031,8.72071 -2.54883,7.91992 17.96875,11.54883 -3.04883,7.04101 -7.05078,-0.23047 -2.98047,-2.00976 v -3.41016 l -6.61914,2.03906 -3.57031,-2.18945 0.35938,-2.59961 -11.09961,-6.32031 -3.0586,1.42969 -6.37109,12.66015 40.49023,25.98047 15.13086,-24.04101 24.11914,13.83984 2.33985,-1.7793 5.5,1.7793 11.7207,12.48047 2.79883,-2.79883 -4.74024,-6.11133 10.03125,7.06055 6.78907,-2.08008 0.1914,-2.70898 -5.13086,-8.36133 7.97071,-10.82031 -0.38086,-3.41993 -1.51953,-2.27929 -17.84961,0.18945 -8.35157,-4.93945 -3.98828,-17.08985 -5.51172,-9.30078 3.23047,-6.45898 0.57032,-3.41016 -0.94922,-3.41992 -9.8711,-3.79102 -10.6289,-7.96875 -10.07032,-2.4707 -20.6914,-16.90039 -4.5586,-7.20898 v -6.08008 l 11.19922,-0.20117 8.91992,-4.93946 0.57032,-4.35937 8.34961,-0.57032 2.09961,-2.27929 -0.56836,-4.36133 -7.79102,-5.12891 -13.66992,-16.70117 -1.90039,-20.1289 -12.5293,-30.75977 -10.83008,-16.33008 -2.27929,-14.05078 4.93945,-8.74023 0.18945,-21.458989 12.16016,-14.050781 -2.30078,-13.75 -17.18946,2.300781 -9.40039,-5.15039 -14.00976,1.61914 0.32031,-5.978515 -6.83008,-3.88086 -4.71875,-7.589843 -13.14062,2.40039 z m -45.32031,246.080081 1.76953,10.19922 3.40039,0.74023 0.74024,-5.99023 z m 35.61914,20.75976 -14.65039,3.00977 -5.91992,3.81055 2.71094,3.60937 -1.91016,2.60938 -3.31055,-1.60938 v 4.61914 l -5.21875,0.60156 -6.02148,6.01954 -0.40039,7.45898 -4.10938,1.59961 -2.41015,-1.59961 -6.82032,5.7207 -5.91992,-6.7207 11.94141,-15.54883 8.1289,-6.41992 -0.5996,-2.71094 -4.31055,0.30078 -2.8086,3.50977 -11.99023,1.01953 -28.839844,20.46094 -19.560546,19.35937 8.330078,24 12.140625,19.35938 8.929687,5.91992 15.94922,-5.21875 -6.01953,-21.37109 7.01953,-5.71875 8.5293,20.85937 5.91992,-3.50976 1,-2.61133 -6.61914,-19.75977 6.82031,-4.50976 9.5293,19.96093 20.06054,-12.83984 9.0293,-3.21094 0.40039,-1.70898 -16.84961,-9.83008 2.81055,-4.71094 3.80859,0.70117 2.71094,-2.35156 0.90039,4.81055 18.66016,9.13086 5.21875,-5.91992 -0.29883,-3.71094 -6.41992,0.0996 -1.10157,-3.20899 6.52149,-5.12109 16.04883,5.41992 11.9414,-7.11914 0.29883,-3.91016 -3.91016,-4.31054 -14.94921,-3.60938 -6.01954,-6.7207 -0.90039,-7.91992 -11.65039,-9.45899 z m 205.34961,53.22852 -10.22852,1.26172 -7.9414,5.10937 19.04101,7.78907 9.2793,-5.34961 z m -28.46875,5.58008 -3.85156,2.52148 -7,-1.17969 -7.86914,-0.31054 16.51953,15.96875 10.92969,4.48047 14.71093,16.51953 14.2793,-6.13867 -0.62891,-9.44141 4.71875,5.19141 9.56055,-14 -2.35937,-2.28125 -8.17969,3.38085 -1.41992,-4.08984 -8.81055,1.25977 -7.24023,-2.99024 -8.57032,0.0801 z m -130.24023,44.52929 c -0.18535,0.0665 -0.35717,0.11626 -0.48633,0.1211 -0.0701,0.003 -0.12905,-0.002 -0.19531,-0.002 -0.47061,0.14982 -0.94627,0.28229 -1.41993,0.42383 -0.45746,0.3489 -0.93314,0.6741 -1.42578,0.97657 l 0.75781,1.22265 2.13477,0.0801 c -0.0771,-0.92722 0.13487,-1.87212 0.63477,-2.82227 z m 49.41992,0.6836 c -0.10347,0.0473 -0.2083,0.0913 -0.31641,0.12695 -0.30987,0.10224 -0.66498,0.12393 -1.00976,0.16406 -0.59128,0.83274 -1.17876,1.66908 -1.87305,2.42188 -0.66566,-0.2557 -1.34117,-0.48557 -2.00977,-0.73438 0.24785,0.95386 0.3104,1.95064 0.25196,2.95118 l 5.71679,3.14843 2.60938,5.82032 h 8.13086 l -4.21094,-8.23047 z m -17.79102,0.67578 0.1211,0.37305 1.57031,0.66992 c -0.0667,-0.16812 -0.1059,-0.35127 -0.10742,-0.54883 -0.46107,0.0996 -0.95556,0.0291 -1.52149,-0.43164 -0.0231,-0.0188 -0.0407,-0.0425 -0.0625,-0.0625 z m -8.30273,0.23047 c -0.19317,9.6e-4 -0.32844,0.0578 -0.54297,0.0371 -0.0935,0.0899 -0.19687,0.1591 -0.33008,0.17187 -0.17992,0.0172 -0.33146,0.0247 -0.49609,0.0371 -0.36502,0.27879 -0.7273,0.56054 -1.09375,0.83789 -0.0351,0.0224 -0.0738,0.0528 -0.10938,0.0762 l 4.46485,5.00196 2.10156,-5.82032 -0.14649,-0.2871 c -0.57767,1.8576 -0.77332,2.42763 -3.84765,-0.0547 z m 13.94922,0.66015 c -0.12602,0.0834 -0.25102,0.15832 -0.37891,0.25586 h -0.002 c -0.54996,0.41949 -1.07672,0.65645 -1.55274,0.75782 l 1.60352,0.68359 c 0.12336,-0.52626 0.26255,-1.06554 0.41797,-1.60742 -0.0294,-0.0291 -0.0583,-0.0591 -0.0879,-0.0899 z m 151.04492,1.07227 -4.3711,3.00977 4.25,-0.58985 z m -147.59961,0.87695 c -0.2017,0.84647 -0.37973,1.69799 -0.53906,2.54492 0.002,0.20665 -0.0399,0.41719 0.004,0.61915 0.0542,0.24978 0.1,0.39035 0.14258,0.49609 0.35405,-1.2109 0.55187,-2.4487 0.39258,-3.66016 z m -9.88086,0.95313 -2.81055,5.91992 8.13867,1.41406 c 0.0898,-0.49735 0.21094,-0.98228 0.3125,-1.41992 0.12048,-0.64419 0.44862,-1.23935 0.57618,-1.88281 0.01,-0.0494 -0.0175,-0.18038 -0.0508,-0.14258 -0.10743,0.12198 0.0312,1.08163 -0.27149,-0.29297 -0.11492,-0.52183 -0.16379,-1.05602 -0.24609,-1.58398 0.0191,-0.17208 0.0329,-0.3451 0.0488,-0.51758 z m 13.24805,2.93359 c -0.20773,0.89565 -0.47343,1.76963 -0.76953,2.58789 -0.27844,0.76945 -0.64739,1.50222 -0.97071,2.25391 -0.1242,0.18628 -0.2386,0.3804 -0.35547,0.57226 l 0.47657,0.082 4.21093,-3.91016 z m -36.71875,1.77539 1.30078,7.32031 7.82031,0.0996 2.20898,-1.19921 -1.5996,-2.11133 z m 181.36132,2.7793 0.70899,4.8418 6.73047,5.36914 0.82031,-4.31055 z m -12.85156,4.24023 -2.35937,1.71094 11.5,13.16016 -0.0605,-9.56055 -5.42969,-3.00977 z m -211.06836,19.77149 -11.12109,1.96875 -13.53906,9.08008 -1.41016,3.26953 18.67969,3.5 17.89062,-0.61914 3.38867,-4.17969 -6.49023,-4.17969 3.44141,-4.00976 -1.41016,-1.47071 -6.04102,2.48047 z m 63.98828,2.95898 -3.38867,7.18946 2.66992,8.83984 3.88868,-1.22852 3.43164,-4.95117 -2.54102,-5.66992 -2.95898,-0.88867 z m 56.40039,0.2793 -0.90039,4.41016 3.31055,6.32031 11.93945,5.41992 z m -118.94921,35.61133 -2.03125,6.32031 -6.83008,1.75 1.02148,8.12891 5.35938,-3.83985 8.58008,-1.75 1.13085,-1.81054 -3.5,-2.81836 2.3086,-1.47071 -2.32031,-3.89062 z" />
  </g>
  <text
     xml:space="preserve"
     id="text1"
     style="font-style:normal;font-variant:normal;font-weight:normal;font-stretch:normal;font-size:0.632422px;font-family:Verdana;-inkscape-font-specification:'Verdana, Normal';font-variant-ligatures:normal;font-variant-caps:normal;font-variant-numeric:normal;font-variant-east-asian:normal;white-space:pre;shape-inside:url(#rect1);display:inline;fill:#483737;fill-opacity:1"
     transform="matrix(9.909742,0,0,11.213515,-267.96315,-3630.7093)"><tspan
       x="27.335938"
       y="358.56721"
       id="tspan2">Image source:
</tspan><tspan
       x="27.335938"
       y="359.35774"
       id="tspan3">https://www.amcharts.com/svg-maps/?map=singapore </tspan></text>
</svg>
